<svg xmlns="http://www.w3.org/2000/svg" viewBox="0 0 100 100" width="32" height="32">
  <circle cx="50" cy="50" r="45" fill="#3498db" />
  <path d="M50 5 A45 45 0 0 1 95 50 A45 45 0 0 1 50 95 A45 45 0 0 1 5 50 A45 45 0 0 1 50 5 z M50 15 A35 35 0 0 0 15 50 A35 35 0 0 0 50 85 A35 35 0 0 0 85 50 A35 35 0 0 0 50 15 z" fill="#2980b9"/>
  <path d="M30 50 L50 30 L70 50 L50 70 z" fill="white" />
  <path d="M40 30 L60 30 L70 50 L60 70 L40 70 L30 50 z" fill="none" stroke="white" stroke-width="2" />
</svg>